<?xml version="1.0" encoding="UTF-8" standalone="no"?>
<!DOCTYPE svg PUBLIC "-//W3C//DTD SVG 1.1//EN" "http://www.w3.org/Graphics/SVG/1.1/DTD/svg11.dtd">
<svg width="100%" height="100%" viewBox="0 0 3687 3323" version="1.1" xmlns="http://www.w3.org/2000/svg" xmlns:xlink="http://www.w3.org/1999/xlink" xml:space="preserve" xmlns:serif="http://www.serif.com/" style="fill-rule:evenodd;clip-rule:evenodd;stroke-linejoin:round;stroke-miterlimit:2;">
    <g id="Artboard1" transform="matrix(1,0,0,1,-1340.53,-3433.95)">
        <rect x="1340.53" y="3433.95" width="3686.1" height="3322.97" style="fill:none;"/>
        <g transform="matrix(0.81091,0,0,0.81091,-1007.14,1161.7)">
            <text x="3750.69px" y="5685.83px" style="font-family:'AXIS-ExtraBold', 'AXIS';font-weight:800;font-size:150px;fill:rgb(39,59,126);">PLANT BREEDING D<tspan x="5292.09px 5398.14px 5485.14px " y="5685.83px 5685.83px 5685.83px ">ATA</tspan> ANAL<tspan x="6085.59px " y="5685.83px ">Y</tspan>TICS</text>
        </g>
        <g transform="matrix(1,0,0,1,0.530491,0.953967)">
            <path d="M3017.72,3800.49L3017.71,4051.29L2714.57,4225.69L2714.57,4778.23L3190.18,5053.03L3665.5,4778.23L3665.5,4225.69L3361.93,4051.29L3361.93,3800.49L3479.61,3979.27L3784.95,4159.09L3784.95,4845.36L3190.18,5184.45L2598.48,4845.36L2598.48,4159.09L2900.14,3979.27L3017.71,3800.49" style="fill:rgb(39,59,126);"/>
        </g>
        <g transform="matrix(0.500148,0,0,0.500148,1209.85,2327.85)">
            <text x="1638.45px" y="6596.16px" style="font-family:'AXIS-ExtraBold', 'AXIS';font-weight:800;font-size:715.305px;fill:rgb(39,59,126);">P<tspan x="2166.35px 2704.25px 2905.97px 3508.26px 4016.12px 4647.02px 5256.46px 5789.36px " y="6596.16px 6596.16px 6596.16px 6596.16px 6596.16px 6596.16px 6596.16px 6596.16px ">B QUANTS</tspan></text>
        </g>
        <g transform="matrix(1,0,0,1,0.530491,0.953967)">
            <path d="M2742.22,4454.67L3008.66,4456.14L3008.66,4897.99L2742.22,4751.19L2742.22,4454.67Z" style="fill:rgb(236,7,124);"/>
        </g>
        <g transform="matrix(1,0,0,1,-304.817,698.686)">
            <path d="M3153.98,3784.32L3276.64,3784.02L3276.64,3900.67L3270.32,3900.67L3238.76,3824.91L3153.98,3784.32Z" style="fill:white;"/>
        </g>
        <g transform="matrix(1,0,0,1,0.530491,0.953967)">
            <path d="M3064.89,3738.35L3320.06,3739.78L3320.06,4941.09L3188.18,5004.17L3064.89,4941.09L3064.89,3739.78" style="fill:rgb(240,65,30);"/>
        </g>
        <g transform="matrix(1,0,0,1,0.530491,0.953967)">
            <path d="M3153.98,3784.32L3276.64,3784.02L3276.64,3900.67L3270.32,3900.67L3238.76,3824.91L3153.98,3784.32Z" style="fill:white;"/>
        </g>
        <g transform="matrix(1,0,0,1,0.530491,0.953967)">
            <path d="M3373.77,4252.85L3372.6,4899.92L3638,4754.88L3638,4252.85L3373.77,4252.85Z" style="fill:rgb(109,189,41);"/>
        </g>
        <g transform="matrix(1,0,0,1,325.944,504.127)">
            <path d="M3153.98,3784.32L3276.64,3784.02L3276.64,3900.67L3270.32,3900.67L3238.76,3824.91L3153.98,3784.32Z" style="fill:white;"/>
        </g>
    </g>
</svg>
